<?xml version="1.0" encoding="utf-8"?>
<!-- Generator: Adobe Illustrator 21.0.2, SVG Export Plug-In . SVG Version: 6.00 Build 0)  -->
<svg version="1.1" id="Isolation_Mode" xmlns="http://www.w3.org/2000/svg" xmlns:xlink="http://www.w3.org/1999/xlink" x="0px"
	 y="0px" viewBox="0 0 2016 3069" style="enable-background:new 0 0 2016 3069;" xml:space="preserve">
<style type="text/css">
	.st0{fill:#48484A;}
	.st1{fill:none;}
</style>
<path class="st0" d="M210.8,2776.4c-0.3,2.2-1.3,4.4-2.5,6.4l-0.1,3.4c1.4,0.6,3,0.8,4.4,1.4l-4.8,1.6c-0.4,0.4-0.5,0.9-0.4,1.5
	c-1.2,2.2-3.6,3.4-5.7,4.5c0.8,2.2-2.4,3.3-3,5.2c1,0.3,2.3-0.1,3.2-0.1c-0.8,0.1-2.4,1-3.7,0.7l-2.5,2.7c-0.2-0.4,0.2-0.9,0.5-1.3
	c-0.5-0.3-0.8,0.4-1.3,0.4c-0.7,0.3-1.5-0.6-2,0.2c0.8-1.3,2.2-0.1,3.1-1.3c-0.8,0-1.7-0.9-2.4-0.1c0.6-1.3,1.8,0,2.9-0.4
	c2-1.1,3.2-3.3,4.5-5c-0.6-1.6-2.3-0.3-3.6-0.7l-3.9,2.7c0.6,0.3,1.3,0.5,2,0.2c0.4-0.4,1.1-0.3,1.6-0.1c-0.1,0.1-1.4-0.2-1.4,0.7
	c-2.3-0.9-4.3,0.5-6,1.5l1-1.3c-0.8-0.4-1.9,0.1-2.5-0.4l-1.1,0.3c0.6-1.2,1.8,0.1,2.5-1.1c2.7,1.5,4.8-1,6.7-2.4
	c-3.3-1-7.3-3.3-8.3-7c-2-1.8-3-4.2-4-6.5c-1.3-1-3.1-1-4.7-1.3c1.6-0.3,4.9-0.9,4.9-0.9s0.9-1,1.9-1.2c2.9-0.7,6.2-0.1,8.2,2.4
	c3.5,0.2,6.4,1.8,9.7,2.3c3.1-1.3,2.1-4.8,3.1-7.3C208.2,2775.4,209.5,2776.4,210.8,2776.4 M185.4,2781c0.2,0.2,0.2,0.4,0.4,0.3
	c0.4,0.4,1,0,1.3-0.3C186.7,2780.6,185.7,2780.6,185.4,2781 M197.2,2787c2.9,0.3,5.9-0.3,8.4-1.1C203,2786.3,200,2786.6,197.2,2787
	 M197.9,2788.3c3.1,0.2,6.4-0.5,9.1-1.5C203.9,2787.3,200.5,2788,197.9,2788.3 M198.7,2790c3.5,0,6.9-1,10-2.2
	C205.5,2788.7,201.9,2789.3,198.7,2790"/>
<line class="st1" x1="179.1" y1="384.5" x2="179.1" y2="2808.9"/>
</svg>
